<svg width="584" height="240" viewBox="0 0 584 240" fill="none" xmlns="http://www.w3.org/2000/svg" role="img" aria-label="what's next — more libraries are on the way">
  <rect x="0.5" y="0.5" width="583" height="239" rx="11.5" fill="#0e141c" stroke="#404753"/>

  <rect x="24" y="24" width="38" height="38" rx="12" fill="#004883"/>
  <g transform="translate(32 32) scale(0.91667)"><path d="M5,19A1,1 0 0,0 6,20H18A1,1 0 0,0 19,19C19,18.79 18.93,18.59 18.82,18.43L13,8.35V4H11V8.35L5.18,18.43C5.07,18.59 5,18.79 5,19M6,22A3,3 0 0,1 3,19C3,18.4 3.18,17.84 3.5,17.37L9,7.81V6A1,1 0 0,1 8,5V4A2,2 0 0,1 10,2H14A2,2 0 0,1 16,4V5A1,1 0 0,1 15,6V7.81L20.5,17.37C20.82,17.84 21,18.4 21,19A3,3 0 0,1 18,22H6M13,16L14.34,14.66L16.27,18H7.73L10.39,13.39L13,16M14.5,13A1,1 0 0,1 13.5,12A1,1 0 0,1 14.5,11A1,1 0 0,1 15.5,12A1,1 0 0,1 14.5,13Z" fill="#d4e3ff"/></g>

  <text x="78" y="50.92" font-family="-apple-system, BlinkMacSystemFont, 'Segoe UI', Roboto, Helvetica, Arial, sans-serif" font-size="22" font-weight="400" fill="#dee2ee">what's next</text>
  <rect x="478" y="31" width="82" height="24" rx="12" fill="#404753"/>
  <text x="519" y="47" text-anchor="middle" font-family="-apple-system, BlinkMacSystemFont, 'Segoe UI', Roboto, Helvetica, Arial, sans-serif" font-size="11" font-weight="500" letter-spacing="0.5" fill="#c0c7d5">in the lab</text>

  <text font-family="-apple-system, BlinkMacSystemFont, 'Segoe UI', Roboto, Helvetica, Arial, sans-serif" font-size="14" letter-spacing="0.25" fill="#c0c7d5">
    <tspan x="24" y="92">More small libraries are on the way, each one built to</tspan>
    <tspan x="24" y="112">work with the rest.</tspan>
  </text>

  <text x="24" y="146" font-family="-apple-system, BlinkMacSystemFont, 'Segoe UI', Roboto, Helvetica, Arial, sans-serif" font-size="12" font-weight="500" letter-spacing="0.5" fill="#c0c7d5">watch the org to be first to know</text>

  <rect x="24.5" y="176.5" width="105" height="39" rx="19.5" fill="none" stroke="#8a919f"/>
  <g transform="translate(40 186) scale(0.83333)"><path d="M12 .297c-6.63 0-12 5.373-12 12 0 5.303 3.438 9.8 8.205 11.385.6.113.82-.258.82-.577 0-.285-.01-1.04-.015-2.04-3.338.724-4.042-1.61-4.042-1.61C4.422 18.07 3.633 17.7 3.633 17.7c-1.087-.744.084-.729.084-.729 1.205.084 1.838 1.236 1.838 1.236 1.07 1.835 2.809 1.305 3.495.998.108-.776.417-1.305.76-1.605-2.665-.3-5.466-1.332-5.466-5.93 0-1.31.465-2.38 1.235-3.22-.135-.303-.54-1.523.105-3.176 0 0 1.005-.322 3.3 1.23.96-.267 1.98-.399 3-.405 1.02.006 2.04.138 3 .405 2.28-1.552 3.285-1.23 3.285-1.23.645 1.653.24 2.873.12 3.176.765.84 1.23 1.91 1.23 3.22 0 4.61-2.805 5.625-5.475 5.92.42.36.81 1.096.81 2.22 0 1.606-.015 2.896-.015 3.286 0 .315.21.69.825.57C20.565 22.092 24 17.592 24 12.297c0-6.627-5.373-12-12-12" fill="#a4c9ff"/></g>
  <text x="68" y="201" font-family="-apple-system, BlinkMacSystemFont, 'Segoe UI', Roboto, Helvetica, Arial, sans-serif" font-size="14" font-weight="500" letter-spacing="0.1" fill="#a4c9ff">GitHub</text>
</svg>
